<mxfile host="Electron" agent="Mozilla/5.0 (Windows NT 10.0; Win64; x64) AppleWebKit/537.36 (KHTML, like Gecko) draw.io/26.2.2 Chrome/134.0.6998.178 Electron/35.1.2 Safari/537.36" version="26.2.2">
  <diagram name="Page-1" id="ET-4TvGncBrhGys6MB21">
    <mxGraphModel dx="1383" dy="693" grid="1" gridSize="10" guides="1" tooltips="1" connect="1" arrows="1" fold="1" page="1" pageScale="1" pageWidth="850" pageHeight="1100" math="0" shadow="0">
      <root>
        <mxCell id="0" />
        <mxCell id="1" parent="0" />
        <mxCell id="FMkX5SF4YYA1pT4LhCkK-2" value="Actor" style="shape=umlActor;verticalLabelPosition=bottom;verticalAlign=top;html=1;outlineConnect=0;" parent="1" vertex="1">
          <mxGeometry x="270" y="80" width="30" height="60" as="geometry" />
        </mxCell>
        <mxCell id="in8KM2bYmPovPHrm2--O-1" value="" style="endArrow=none;dashed=1;html=1;rounded=0;" parent="1" target="FMkX5SF4YYA1pT4LhCkK-2" edge="1">
          <mxGeometry width="50" height="50" relative="1" as="geometry">
            <mxPoint x="285" y="680" as="sourcePoint" />
            <mxPoint x="284.58" y="211" as="targetPoint" />
          </mxGeometry>
        </mxCell>
        <mxCell id="in8KM2bYmPovPHrm2--O-47" value="Controller" style="shape=umlLifeline;perimeter=lifelinePerimeter;whiteSpace=wrap;html=1;container=1;dropTarget=0;collapsible=0;recursiveResize=0;outlineConnect=0;portConstraint=eastwest;newEdgeStyle={&quot;curved&quot;:0,&quot;rounded&quot;:0};" parent="1" vertex="1">
          <mxGeometry x="470" y="90" width="100" height="590" as="geometry" />
        </mxCell>
        <mxCell id="in8KM2bYmPovPHrm2--O-76" value="" style="html=1;points=[[0,0,0,0,5],[0,1,0,0,-5],[1,0,0,0,5],[1,1,0,0,-5]];perimeter=orthogonalPerimeter;outlineConnect=0;targetShapes=umlLifeline;portConstraint=eastwest;newEdgeStyle={&quot;curved&quot;:0,&quot;rounded&quot;:0};" parent="in8KM2bYmPovPHrm2--O-47" vertex="1">
          <mxGeometry x="45" y="100" width="10" height="360" as="geometry" />
        </mxCell>
        <mxCell id="in8KM2bYmPovPHrm2--O-48" value="Service" style="shape=umlLifeline;perimeter=lifelinePerimeter;whiteSpace=wrap;html=1;container=1;dropTarget=0;collapsible=0;recursiveResize=0;outlineConnect=0;portConstraint=eastwest;newEdgeStyle={&quot;curved&quot;:0,&quot;rounded&quot;:0};" parent="1" vertex="1">
          <mxGeometry x="710" y="90" width="100" height="600" as="geometry" />
        </mxCell>
        <mxCell id="in8KM2bYmPovPHrm2--O-75" value="" style="html=1;points=[[0,0,0,0,5],[0,1,0,0,-5],[1,0,0,0,5],[1,1,0,0,-5]];perimeter=orthogonalPerimeter;outlineConnect=0;targetShapes=umlLifeline;portConstraint=eastwest;newEdgeStyle={&quot;curved&quot;:0,&quot;rounded&quot;:0};" parent="in8KM2bYmPovPHrm2--O-48" vertex="1">
          <mxGeometry x="45" y="120" width="10" height="320" as="geometry" />
        </mxCell>
        <mxCell id="in8KM2bYmPovPHrm2--O-49" value="Database" style="shape=umlLifeline;perimeter=lifelinePerimeter;whiteSpace=wrap;html=1;container=1;dropTarget=0;collapsible=0;recursiveResize=0;outlineConnect=0;portConstraint=eastwest;newEdgeStyle={&quot;curved&quot;:0,&quot;rounded&quot;:0};" parent="1" vertex="1">
          <mxGeometry x="950" y="90" width="100" height="590" as="geometry" />
        </mxCell>
        <mxCell id="in8KM2bYmPovPHrm2--O-50" value="Không tìm thấy người dùng" style="html=1;verticalAlign=bottom;endArrow=open;dashed=1;endSize=8;curved=0;rounded=0;" parent="1" target="in8KM2bYmPovPHrm2--O-48" edge="1">
          <mxGeometry relative="1" as="geometry">
            <mxPoint x="1000" y="270" as="sourcePoint" />
            <mxPoint x="920" y="270" as="targetPoint" />
            <Array as="points">
              <mxPoint x="880" y="270" />
            </Array>
          </mxGeometry>
        </mxCell>
        <mxCell id="in8KM2bYmPovPHrm2--O-51" value="Không tìm thấy người dùng" style="html=1;verticalAlign=bottom;endArrow=open;dashed=1;endSize=8;curved=0;rounded=0;" parent="1" edge="1">
          <mxGeometry relative="1" as="geometry">
            <mxPoint x="759.5" y="290" as="sourcePoint" />
            <mxPoint x="519.8939393939395" y="290" as="targetPoint" />
          </mxGeometry>
        </mxCell>
        <mxCell id="in8KM2bYmPovPHrm2--O-52" value="Không tìm thấy người dùng" style="html=1;verticalAlign=bottom;endArrow=open;dashed=1;endSize=8;curved=0;rounded=0;" parent="1" edge="1">
          <mxGeometry relative="1" as="geometry">
            <mxPoint x="519.5" y="310" as="sourcePoint" />
            <mxPoint x="280" y="310" as="targetPoint" />
          </mxGeometry>
        </mxCell>
        <mxCell id="in8KM2bYmPovPHrm2--O-55" value="Nhập tài khoản và mật khẩu" style="html=1;verticalAlign=bottom;endArrow=block;curved=0;rounded=0;" parent="1" target="in8KM2bYmPovPHrm2--O-47" edge="1">
          <mxGeometry width="80" relative="1" as="geometry">
            <mxPoint x="280" y="190" as="sourcePoint" />
            <mxPoint x="370" y="190" as="targetPoint" />
          </mxGeometry>
        </mxCell>
        <mxCell id="in8KM2bYmPovPHrm2--O-56" value="Gọi hàm đăng nhập" style="html=1;verticalAlign=bottom;endArrow=block;curved=0;rounded=0;" parent="1" edge="1">
          <mxGeometry width="80" relative="1" as="geometry">
            <mxPoint x="520" y="210" as="sourcePoint" />
            <mxPoint x="760" y="210" as="targetPoint" />
          </mxGeometry>
        </mxCell>
        <mxCell id="in8KM2bYmPovPHrm2--O-57" value="Thực thi truy vấn" style="html=1;verticalAlign=bottom;endArrow=block;curved=0;rounded=0;" parent="1" source="in8KM2bYmPovPHrm2--O-75" edge="1">
          <mxGeometry width="80" relative="1" as="geometry">
            <mxPoint x="760" y="230" as="sourcePoint" />
            <mxPoint x="1000" y="230" as="targetPoint" />
          </mxGeometry>
        </mxCell>
        <mxCell id="in8KM2bYmPovPHrm2--O-58" value="frame" style="shape=umlFrame;whiteSpace=wrap;html=1;pointerEvents=0;" parent="1" vertex="1">
          <mxGeometry x="110" y="250" width="1040" height="390" as="geometry" />
        </mxCell>
        <mxCell id="in8KM2bYmPovPHrm2--O-60" value="[User not found]" style="text;html=1;align=center;verticalAlign=middle;resizable=0;points=[];autosize=1;strokeColor=none;fillColor=none;" parent="1" vertex="1">
          <mxGeometry x="150" y="290" width="110" height="30" as="geometry" />
        </mxCell>
        <mxCell id="in8KM2bYmPovPHrm2--O-61" value="Alternative" style="shape=umlFrame;whiteSpace=wrap;html=1;pointerEvents=0;" parent="1" vertex="1">
          <mxGeometry x="150" y="400" width="640" height="200" as="geometry" />
        </mxCell>
        <mxCell id="in8KM2bYmPovPHrm2--O-62" value="TÌm thấy người dùng" style="html=1;verticalAlign=bottom;endArrow=open;dashed=1;endSize=8;curved=0;rounded=0;" parent="1" source="in8KM2bYmPovPHrm2--O-49" target="in8KM2bYmPovPHrm2--O-48" edge="1">
          <mxGeometry relative="1" as="geometry">
            <mxPoint x="910" y="330" as="sourcePoint" />
            <mxPoint x="830" y="330" as="targetPoint" />
            <Array as="points">
              <mxPoint x="870" y="330" />
            </Array>
          </mxGeometry>
        </mxCell>
        <mxCell id="in8KM2bYmPovPHrm2--O-65" value="" style="line;strokeWidth=1;fillColor=none;align=left;verticalAlign=middle;spacingTop=-1;spacingLeft=3;spacingRight=3;rotatable=0;labelPosition=right;points=[];portConstraint=eastwest;strokeColor=inherit;dashed=1;" parent="1" vertex="1">
          <mxGeometry x="110" y="344" width="1040" height="8" as="geometry" />
        </mxCell>
        <mxCell id="in8KM2bYmPovPHrm2--O-66" value="[User found]" style="text;html=1;align=center;verticalAlign=middle;resizable=0;points=[];autosize=1;strokeColor=none;fillColor=none;" parent="1" vertex="1">
          <mxGeometry x="160" y="352" width="90" height="30" as="geometry" />
        </mxCell>
        <mxCell id="in8KM2bYmPovPHrm2--O-67" value="Người dùng không khả dụng" style="html=1;verticalAlign=bottom;endArrow=open;dashed=1;endSize=8;curved=0;rounded=0;" parent="1" edge="1">
          <mxGeometry relative="1" as="geometry">
            <mxPoint x="759.5" y="449" as="sourcePoint" />
            <mxPoint x="520" y="449" as="targetPoint" />
            <Array as="points">
              <mxPoint x="550" y="449" />
            </Array>
          </mxGeometry>
        </mxCell>
        <mxCell id="in8KM2bYmPovPHrm2--O-68" value="Đăng nhập thất bại" style="html=1;verticalAlign=bottom;endArrow=open;dashed=1;endSize=8;curved=0;rounded=0;" parent="1" source="in8KM2bYmPovPHrm2--O-47" edge="1">
          <mxGeometry relative="1" as="geometry">
            <mxPoint x="370" y="470" as="sourcePoint" />
            <mxPoint x="290" y="470" as="targetPoint" />
            <Array as="points">
              <mxPoint x="300" y="470" />
            </Array>
          </mxGeometry>
        </mxCell>
        <mxCell id="in8KM2bYmPovPHrm2--O-69" value="" style="line;strokeWidth=1;fillColor=none;align=left;verticalAlign=middle;spacingTop=-1;spacingLeft=3;spacingRight=3;rotatable=0;labelPosition=right;points=[];portConstraint=eastwest;strokeColor=inherit;dashed=1;" parent="1" vertex="1">
          <mxGeometry x="150" y="483" width="610" height="8" as="geometry" />
        </mxCell>
        <mxCell id="in8KM2bYmPovPHrm2--O-70" value="Người dùng khả dụng" style="html=1;verticalAlign=bottom;endArrow=open;dashed=1;endSize=8;curved=0;rounded=0;" parent="1" edge="1">
          <mxGeometry relative="1" as="geometry">
            <mxPoint x="759.5" y="528" as="sourcePoint" />
            <mxPoint x="520" y="528" as="targetPoint" />
          </mxGeometry>
        </mxCell>
        <mxCell id="in8KM2bYmPovPHrm2--O-71" value="Đăng nhập thành công" style="html=1;verticalAlign=bottom;endArrow=open;dashed=1;endSize=8;curved=0;rounded=0;" parent="1" edge="1">
          <mxGeometry relative="1" as="geometry">
            <mxPoint x="520" y="549" as="sourcePoint" />
            <mxPoint x="290" y="549" as="targetPoint" />
          </mxGeometry>
        </mxCell>
        <mxCell id="in8KM2bYmPovPHrm2--O-72" value="[Tài khoản không&lt;div&gt;khả dụng]&lt;/div&gt;" style="text;html=1;align=center;verticalAlign=middle;resizable=0;points=[];autosize=1;strokeColor=none;fillColor=none;" parent="1" vertex="1">
          <mxGeometry x="155" y="440" width="120" height="40" as="geometry" />
        </mxCell>
        <mxCell id="in8KM2bYmPovPHrm2--O-73" value="[Tài khoản khả dụng]" style="text;html=1;align=center;verticalAlign=middle;resizable=0;points=[];autosize=1;strokeColor=none;fillColor=none;" parent="1" vertex="1">
          <mxGeometry x="145" y="520" width="140" height="30" as="geometry" />
        </mxCell>
        <mxCell id="in8KM2bYmPovPHrm2--O-74" value="" style="html=1;points=[[0,0,0,0,5],[0,1,0,0,-5],[1,0,0,0,5],[1,1,0,0,-5]];perimeter=orthogonalPerimeter;outlineConnect=0;targetShapes=umlLifeline;portConstraint=eastwest;newEdgeStyle={&quot;curved&quot;:0,&quot;rounded&quot;:0};" parent="1" vertex="1">
          <mxGeometry x="995" y="230" width="10" height="100" as="geometry" />
        </mxCell>
      </root>
    </mxGraphModel>
  </diagram>
</mxfile>
